#!OML:ASF H:\Punching\Project 1\Capture day 1\Session 1\female.ASF
:FULLY-SPECIFIED
:DEGREES
2296
root -0.154533 15.7075 6.13189 9.27376 -6.04648 1.59692
lowerback -5.11262 -1.90266 -0.633032
upperback -9.03071 -2.57214 0.0402546
thorax -6.51686 -1.25515 0.413085
lowerneck -9.8149 -4.65292 0.0524329
upperneck 30.0832 -4.39602 -8.48091
head 11.1221 -3.09482 -3.66816
rclavicle -1.23495e-014 -9.54166e-015
rhumerus -42.7412 -17.4804 -65.489
rradius 27.5831
rwrist 8.03105
rhand -10.2799 -6.80832
rfingers 7.12502
rthumb 15.7141 -36.1903
lclavicle -1.23495e-014 -9.54166e-015
lhumerus -50.9031 12.5445 70.6973
lradius 39.7634
lwrist -8.53268
lhand 0.0856614 16.0683
lfingers 7.12502
lthumb 25.6724 44.3573
rfemur -13.1143 10.8065 13.6335
rtibia 27.8198
rfoot -19.7912 -21.2878
rtoes -3.05308
lfemur -7.65593 -16.2843 -18.2413
ltibia 17.2906
lfoot -16.9737 27.0995
ltoes 0.464431
2297
root -0.153645 15.7048 6.14279 9.22479 -6.25044 1.59507
lowerback -5.19274 -1.94227 -0.658612
upperback -9.09694 -2.62543 0.0503922
thorax -6.54117 -1.28012 0.436768
lowerneck -9.76859 -4.94267 -0.279206
upperneck 29.896 -4.79951 -8.33317
head 11.0371 -3.29795 -3.59129
rclavicle -2.75814e-014 -6.16232e-015
rhumerus -42.9343 -17.8463 -65.4022
rradius 27.0061
rwrist 9.0577
rhand -10.0827 -6.58883
rfingers 7.12502
rthumb 15.904 -35.9558
lclavicle -2.75814e-014 -6.16232e-015
lhumerus -51.2896 12.8847 70.587
lradius 39.1336
lwrist -9.0313
lhand 0.793452 16.1803
lfingers 7.12502
lthumb 26.3501 44.3697
rfemur -13.1039 10.8203 13.6189
rtibia 27.8768
rfoot -19.7843 -21.164
rtoes -3.19152
lfemur -7.47463 -16.2729 -18.3094
ltibia 17.2359
lfoot -17.0916 27.2423
ltoes 0.571472
2298
root -0.152711 15.7021 6.1536 9.1754 -6.45674 1.59081
lowerback -5.27385 -1.98027 -0.686238
upperback -9.15749 -2.67639 0.0622605
thorax -6.55858 -1.30375 0.463136
lowerneck -9.75108 -5.20903 -0.586602
upperneck 29.7464 -5.18102 -8.15321
head 10.976 -3.48485 -3.50808
rclavicle 1.73688e-014 -9.93923e-016
rhumerus -43.1244 -18.221 -65.2949
rradius 26.4452
rwrist 10.1105
rhand -9.91151 -6.37223
rfingers 7.12502
rthumb 16.0689 -35.726
lclavicle 1.73688e-014 -9.93923e-016
lhumerus -51.6612 13.273 70.4442
lradius 38.4607
lwrist -9.66834
lhand 1.36227 16.2764
lfingers 7.12502
lthumb 26.8945 44.3831
rfemur -13.0932 10.8339 13.6055
rtibia 27.9325
rfoot -19.7827 -21.0343
rtoes -3.33241
lfemur -7.29187 -16.2597 -18.3758
ltibia 17.1797
lfoot -17.2097 27.3853
ltoes 0.681164
2299
root -0.151679 15.6994 6.16433 9.12286 -6.66427 1.58664
lowerback -5.35339 -2.01672 -0.717417
upperback -9.21307 -2.7251 0.0749499
thorax -6.57128 -1.32601 0.492192
lowerneck -9.746 -5.45098 -0.875313
upperneck 29.6249 -5.53955 -7.93764
head 10.9321 -3.65504 -3.41522
rclavicle -2.00773e-014 7.55382e-015
rhumerus -43.3135 -18.5982 -65.1692
rradius 25.9081
rwrist 11.1695
rhand -9.75046 -6.16189
rfingers 7.12502
rthumb 16.2239 -35.503
lclavicle -2.00773e-014 7.55382e-015
lhumerus -52.019 13.6961 70.2749
lradius 37.7425
lwrist -10.4172
lhand 1.77082 16.3361
lfingers 7.12502
lthumb 27.2854 44.3819
rfemur -13.0776 10.8472 13.5902
rtibia 27.9845
rfoot -19.7877 -20.894
rtoes -3.44136
lfemur -7.10716 -16.2392 -18.4445
ltibia 17.1263
lfoot -17.3283 27.5231
ltoes 0.785308
2300
root -0.150575 15.6967 6.17494 9.06765 -6.8737 1.57997
lowerback -5.42962 -2.05056 -0.74889
upperback -9.26464 -2.77026 0.0880887
thorax -6.58147 -1.34645 0.52183
lowerneck -9.75405 -5.66972 -1.14756
upperneck 29.5345 -5.87636 -7.68645
head 10.9064 -3.80938 -3.31275
rclavicle 6.70898e-016 -1.13307e-014
rhumerus -43.5055 -18.9719 -65.0293
rradius 25.4011
rwrist 12.2141
rhand -9.59185 -5.9754
rfingers 7.12502
rthumb 16.3767 -35.304
lclavicle 6.70898e-016 -1.13307e-014
lhumerus -52.3619 14.146 70.08
lradius 36.9864
lwrist -11.2481
lhand 2.03079 16.3705
lfingers 7.12502
lthumb 27.534 44.377
rfemur -13.0562 10.8594 13.5765
rtibia 28.0309
rfoot -19.7972 -20.7462
rtoes -3.54941
lfemur -6.92239 -16.215 -18.5127
ltibia 17.0792
lfoot -17.4511 27.6609
ltoes 0.89447
2301
root -0.149569 15.6939 6.18537 9.00839 -7.08575 1.56989
lowerback -5.50108 -2.08223 -0.782444
upperback -9.313 -2.81238 0.102996
thorax -6.59072 -1.36515 0.554511
lowerneck -9.76485 -5.86642 -1.40246
upperneck 29.4695 -6.1922 -7.40611
head 10.894 -3.94879 -3.20254
rclavicle 2.04997e-014 1.59028e-015
rhumerus -43.7016 -19.3237 -64.8853
rradius 24.937
rwrist 13.2195
rhand -9.43268 -5.78963
rfingers 7.12502
rthumb 16.5299 -35.1055
lclavicle 2.04997e-014 1.59028e-015
lhumerus -52.6918 14.6194 69.8592
lradius 36.1987
lwrist -12.1291
lhand 2.15253 16.3884
lfingers 7.12502
lthumb 27.6505 44.3762
rfemur -13.0279 10.8809 13.5665
rtibia 28.0703
rfoot -19.8109 -20.5997
rtoes -3.64378
lfemur -6.73804 -16.184 -18.5788
ltibia 17.0411
lfoot -17.5806 27.7965
ltoes 1.00876
2302
root -0.14867 15.6909 6.19544 8.94484 -7.29495 1.55515
lowerback -5.56519 -2.11231 -0.814714
upperback -9.35787 -2.85234 0.118499
thorax -6.60036 -1.3828 0.587253
lowerneck -9.78267 -6.04388 -1.63671
upperneck 29.4326 -6.48983 -7.10391
head 10.8962 -4.0751 -3.08833
rclavicle -3.16565e-014 -1.96797e-014
rhumerus -43.9031 -19.6344 -64.7514
rradius 24.5261
rwrist 14.15
rhand -9.26928 -5.60642
rfingers 7.12502
rthumb 16.6872 -34.9092
lclavicle -3.16565e-014 -1.96797e-014
lhumerus -53.0108 15.1077 69.6129
lradius 35.4037
lwrist -13.0263
lhand 2.18221 16.4207
lfingers 7.12502
lthumb 27.6788 44.404
rfemur -12.991 10.9154 13.5621
rtibia 28.1021
rfoot -19.8325 -20.456
rtoes -3.70478
lfemur -6.5552 -16.1578 -18.6402
ltibia 17.0126
lfoot -17.7192 27.9334
ltoes 1.13226
2303
root -0.147872 15.688 6.2051 8.88017 -7.50373 1.53321
lowerback -5.62804 -2.13973 -0.842521
upperback -9.40007 -2.88869 0.135128
thorax -6.60797 -1.3989 0.618621
lowerneck -9.79791 -6.20244 -1.85142
upperneck 29.4209 -6.76873 -6.78514
head 10.9095 -4.18876 -2.97109
rclavicle -1.88348e-014 1.25234e-014
rhumerus -44.1091 -19.9273 -64.6123
rradius 24.1578
rwrist 15.0236
rhand -9.09576 -5.42887
rfingers 7.12502
rthumb 16.8543 -34.7174
lclavicle -1.88348e-014 1.25234e-014
lhumerus -53.3231 15.6138 69.335
lradius 34.6184
lwrist -13.9229
lhand 2.1515 16.4737
lfingers 7.12502
lthumb 27.6495 44.4618
rfemur -12.9507 10.9572 13.566
rtibia 28.1264
rfoot -19.8491 -20.3176
rtoes -3.78045
lfemur -6.37698 -16.1337 -18.6938
ltibia 16.9935
lfoot -17.8641 28.074
ltoes 1.26172
